M48
; DRILL file {KiCad 8.0.7} date 2025-07-29T16:18:43-0400
; FORMAT={-:-/ absolute / metric / decimal}
; #@! TF.CreationDate,2025-07-29T16:18:43-04:00
; #@! TF.GenerationSoftware,Kicad,Pcbnew,8.0.7
; #@! TF.FileFunction,Plated,1,2,PTH
FMAT,2
METRIC
; #@! TA.AperFunction,Plated,PTH,ViaDrill
T1C0.300
; #@! TA.AperFunction,Plated,PTH,ComponentDrill
T2C0.800
; #@! TA.AperFunction,Plated,PTH,ComponentDrill
T3C0.889
; #@! TA.AperFunction,Plated,PTH,ComponentDrill
T4C1.000
; #@! TA.AperFunction,Plated,PTH,ComponentDrill
T5C2.000
%
G90
G05
T1
X133.809Y-71.191
X134.039Y-73.961
X142.0Y-69.0
X148.0Y-72.291
T2
X139.065Y-57.15
X139.065Y-61.912
X139.065Y-66.675
X146.685Y-57.15
X146.685Y-61.912
X146.685Y-66.675
T3
X154.305Y-58.579
X154.305Y-61.119
X154.305Y-63.659
X154.305Y-66.199
X154.305Y-68.739
X154.305Y-71.279
X154.305Y-73.819
X169.545Y-58.579
X169.545Y-61.119
X169.545Y-63.659
X169.545Y-66.199
X169.545Y-68.739
X169.545Y-71.279
X169.545Y-73.819
T4
X116.159Y-56.081
X118.699Y-56.081
X121.239Y-56.081
X123.779Y-56.081
T5
X108.969Y-56.581
X108.969Y-78.581
X130.969Y-56.581
X130.969Y-78.581
M30
