%TF.GenerationSoftware,KiCad,Pcbnew,8.0.7*%
%TF.CreationDate,2025-07-29T16:18:33-04:00*%
%TF.ProjectId,hermes,6865726d-6573-42e6-9b69-6361645f7063,rev?*%
%TF.SameCoordinates,Original*%
%TF.FileFunction,Copper,L1,Top*%
%TF.FilePolarity,Positive*%
%FSLAX46Y46*%
G04 Gerber Fmt 4.6, Leading zero omitted, Abs format (unit mm)*
G04 Created by KiCad (PCBNEW 8.0.7) date 2025-07-29 16:18:33*
%MOMM*%
%LPD*%
G01*
G04 APERTURE LIST*
G04 Aperture macros list*
%AMRoundRect*
0 Rectangle with rounded corners*
0 $1 Rounding radius*
0 $2 $3 $4 $5 $6 $7 $8 $9 X,Y pos of 4 corners*
0 Add a 4 corners polygon primitive as box body*
4,1,4,$2,$3,$4,$5,$6,$7,$8,$9,$2,$3,0*
0 Add four circle primitives for the rounded corners*
1,1,$1+$1,$2,$3*
1,1,$1+$1,$4,$5*
1,1,$1+$1,$6,$7*
1,1,$1+$1,$8,$9*
0 Add four rect primitives between the rounded corners*
20,1,$1+$1,$2,$3,$4,$5,0*
20,1,$1+$1,$4,$5,$6,$7,0*
20,1,$1+$1,$6,$7,$8,$9,0*
20,1,$1+$1,$8,$9,$2,$3,0*%
%AMFreePoly0*
4,1,14,0.088284,0.450784,0.100000,0.422500,0.100000,-0.422500,0.088284,-0.450784,0.060000,-0.462500,0.036569,-0.462500,0.008285,-0.450784,-0.088284,-0.354215,-0.100000,-0.325931,-0.100000,0.422500,-0.088284,0.450784,-0.060000,0.462500,0.060000,0.462500,0.088284,0.450784,0.088284,0.450784,$1*%
%AMFreePoly1*
4,1,14,0.088284,0.450784,0.100000,0.422500,0.100000,-0.325931,0.088284,-0.354215,-0.008285,-0.450784,-0.036569,-0.462500,-0.060000,-0.462500,-0.088284,-0.450784,-0.100000,-0.422500,-0.100000,0.422500,-0.088284,0.450784,-0.060000,0.462500,0.060000,0.462500,0.088284,0.450784,0.088284,0.450784,$1*%
%AMFreePoly2*
4,1,14,0.450784,0.088284,0.462500,0.060000,0.462500,-0.060000,0.450784,-0.088284,0.422500,-0.100000,-0.422500,-0.100000,-0.450784,-0.088284,-0.462500,-0.060000,-0.462500,-0.036569,-0.450784,-0.008285,-0.354215,0.088284,-0.325931,0.100000,0.422500,0.100000,0.450784,0.088284,0.450784,0.088284,$1*%
%AMFreePoly3*
4,1,14,0.450784,0.088284,0.462500,0.060000,0.462500,-0.060000,0.450784,-0.088284,0.422500,-0.100000,-0.325931,-0.100000,-0.354215,-0.088284,-0.450784,0.008285,-0.462500,0.036569,-0.462500,0.060000,-0.450784,0.088284,-0.422500,0.100000,0.422500,0.100000,0.450784,0.088284,0.450784,0.088284,$1*%
%AMFreePoly4*
4,1,14,-0.008285,0.450784,0.088284,0.354215,0.100000,0.325931,0.100000,-0.422500,0.088284,-0.450784,0.060000,-0.462500,-0.060000,-0.462500,-0.088284,-0.450784,-0.100000,-0.422500,-0.100000,0.422500,-0.088284,0.450784,-0.060000,0.462500,-0.036569,0.462500,-0.008285,0.450784,-0.008285,0.450784,$1*%
%AMFreePoly5*
4,1,14,0.088284,0.450784,0.100000,0.422500,0.100000,-0.422500,0.088284,-0.450784,0.060000,-0.462500,-0.060000,-0.462500,-0.088284,-0.450784,-0.100000,-0.422500,-0.100000,0.325931,-0.088284,0.354215,0.008285,0.450784,0.036569,0.462500,0.060000,0.462500,0.088284,0.450784,0.088284,0.450784,$1*%
%AMFreePoly6*
4,1,14,0.450784,0.088284,0.462500,0.060000,0.462500,0.036569,0.450784,0.008285,0.354215,-0.088284,0.325931,-0.100000,-0.422500,-0.100000,-0.450784,-0.088284,-0.462500,-0.060000,-0.462500,0.060000,-0.450784,0.088284,-0.422500,0.100000,0.422500,0.100000,0.450784,0.088284,0.450784,0.088284,$1*%
%AMFreePoly7*
4,1,14,0.354215,0.088284,0.450784,-0.008285,0.462500,-0.036569,0.462500,-0.060000,0.450784,-0.088284,0.422500,-0.100000,-0.422500,-0.100000,-0.450784,-0.088284,-0.462500,-0.060000,-0.462500,0.060000,-0.450784,0.088284,-0.422500,0.100000,0.325931,0.100000,0.354215,0.088284,0.354215,0.088284,$1*%
G04 Aperture macros list end*
%TA.AperFunction,ComponentPad*%
%ADD10R,1.508000X1.508000*%
%TD*%
%TA.AperFunction,ComponentPad*%
%ADD11C,1.508000*%
%TD*%
%TA.AperFunction,ComponentPad*%
%ADD12C,3.000000*%
%TD*%
%TA.AperFunction,ComponentPad*%
%ADD13C,1.600000*%
%TD*%
%TA.AperFunction,ComponentPad*%
%ADD14O,1.600000X1.600000*%
%TD*%
%TA.AperFunction,SMDPad,CuDef*%
%ADD15FreePoly0,270.000000*%
%TD*%
%TA.AperFunction,SMDPad,CuDef*%
%ADD16RoundRect,0.050000X-0.412500X0.050000X-0.412500X-0.050000X0.412500X-0.050000X0.412500X0.050000X0*%
%TD*%
%TA.AperFunction,SMDPad,CuDef*%
%ADD17FreePoly1,270.000000*%
%TD*%
%TA.AperFunction,SMDPad,CuDef*%
%ADD18FreePoly2,270.000000*%
%TD*%
%TA.AperFunction,SMDPad,CuDef*%
%ADD19RoundRect,0.050000X-0.050000X0.412500X-0.050000X-0.412500X0.050000X-0.412500X0.050000X0.412500X0*%
%TD*%
%TA.AperFunction,SMDPad,CuDef*%
%ADD20FreePoly3,270.000000*%
%TD*%
%TA.AperFunction,SMDPad,CuDef*%
%ADD21FreePoly4,270.000000*%
%TD*%
%TA.AperFunction,SMDPad,CuDef*%
%ADD22FreePoly5,270.000000*%
%TD*%
%TA.AperFunction,SMDPad,CuDef*%
%ADD23FreePoly6,270.000000*%
%TD*%
%TA.AperFunction,SMDPad,CuDef*%
%ADD24FreePoly7,270.000000*%
%TD*%
%TA.AperFunction,SMDPad,CuDef*%
%ADD25RoundRect,0.152400X-1.063600X-0.609600X1.063600X-0.609600X1.063600X0.609600X-1.063600X0.609600X0*%
%TD*%
%TA.AperFunction,ComponentPad*%
%ADD26C,1.524000*%
%TD*%
%TA.AperFunction,SMDPad,CuDef*%
%ADD27RoundRect,0.152400X1.063600X0.609600X-1.063600X0.609600X-1.063600X-0.609600X1.063600X-0.609600X0*%
%TD*%
%TA.AperFunction,SMDPad,CuDef*%
%ADD28RoundRect,0.225000X-0.225000X-0.250000X0.225000X-0.250000X0.225000X0.250000X-0.225000X0.250000X0*%
%TD*%
%TA.AperFunction,ViaPad*%
%ADD29C,0.600000*%
%TD*%
%TA.AperFunction,Conductor*%
%ADD30C,0.200000*%
%TD*%
%TA.AperFunction,Conductor*%
%ADD31C,0.100000*%
%TD*%
G04 APERTURE END LIST*
D10*
%TO.P,U3,1,GND*%
%TO.N,VSS*%
X116158750Y-56081250D03*
D11*
%TO.P,U3,2,VCC_IN*%
%TO.N,3V3*%
X118698750Y-56081250D03*
%TO.P,U3,3,SCL*%
%TO.N,SCL*%
X121238750Y-56081250D03*
%TO.P,U3,4,SDA*%
%TO.N,SDA*%
X123778750Y-56081250D03*
D12*
%TO.P,U3,S1*%
%TO.N,N/C*%
X108968750Y-56581250D03*
%TO.P,U3,S2*%
X130968750Y-56581250D03*
%TO.P,U3,S3*%
X130968750Y-78581250D03*
%TO.P,U3,S4*%
X108968750Y-78581250D03*
%TD*%
D13*
%TO.P,R1,1*%
%TO.N,Net-(U1-GPIO6{slash}SDA)*%
X146685000Y-61912500D03*
D14*
%TO.P,R1,2*%
%TO.N,SDA*%
X139065000Y-61912500D03*
%TD*%
D13*
%TO.P,R2,1*%
%TO.N,SCL*%
X139065000Y-57150000D03*
D14*
%TO.P,R2,2*%
%TO.N,Net-(U1-GPIO7{slash}SCL)*%
X146685000Y-57150000D03*
%TD*%
D15*
%TO.P,U2,20,VDD*%
%TO.N,3V3*%
X144262500Y-74406250D03*
D16*
%TO.P,U2,19,LED7/ELE11*%
%TO.N,unconnected-(U2-LED7{slash}ELE11-Pad19)*%
X144262500Y-74806250D03*
%TO.P,U2,18,LED6/ELE10*%
%TO.N,unconnected-(U2-LED6{slash}ELE10-Pad18)*%
X144262500Y-75206250D03*
%TO.P,U2,17,LED5/ELE9*%
%TO.N,unconnected-(U2-LED5{slash}ELE9-Pad17)*%
X144262500Y-75606250D03*
D17*
%TO.P,U2,16,LED4/ELE8*%
%TO.N,unconnected-(U2-LED4{slash}ELE8-Pad16)*%
X144262500Y-76006250D03*
D18*
%TO.P,U2,15,LED3/ELE7*%
%TO.N,unconnected-(U2-LED3{slash}ELE7-Pad15)*%
X143675000Y-76593750D03*
D19*
%TO.P,U2,14,LED2/ELE6*%
%TO.N,unconnected-(U2-LED2{slash}ELE6-Pad14)*%
X143275000Y-76593750D03*
%TO.P,U2,13,LED1/ELE5*%
%TO.N,unconnected-(U2-LED1{slash}ELE5-Pad13)*%
X142875000Y-76593750D03*
%TO.P,U2,12,LED0/ELE4*%
%TO.N,unconnected-(U2-LED0{slash}ELE4-Pad12)*%
X142475000Y-76593750D03*
D20*
%TO.P,U2,11,ELE3*%
%TO.N,unconnected-(U2-ELE3-Pad11)*%
X142075000Y-76593750D03*
D21*
%TO.P,U2,10,ELE2*%
%TO.N,unconnected-(U2-ELE2-Pad10)*%
X141487500Y-76006250D03*
D16*
%TO.P,U2,9,ELE1*%
%TO.N,unconnected-(U2-ELE1-Pad9)*%
X141487500Y-75606250D03*
%TO.P,U2,8,ELE0*%
%TO.N,ELE0*%
X141487500Y-75206250D03*
%TO.P,U2,7,REXT*%
%TO.N,Net-(U2-REXT)*%
X141487500Y-74806250D03*
D22*
%TO.P,U2,6,VSS*%
%TO.N,VSS*%
X141487500Y-74406250D03*
D23*
%TO.P,U2,5,VREG*%
%TO.N,3V3*%
X142075000Y-73818750D03*
D19*
%TO.P,U2,4,ADDR*%
%TO.N,VSS*%
X142475000Y-73818750D03*
%TO.P,U2,3,SDA*%
%TO.N,SDA*%
X142875000Y-73818750D03*
%TO.P,U2,2,SCL*%
%TO.N,SCL*%
X143275000Y-73818750D03*
D24*
%TO.P,U2,1,~{IRQ}*%
%TO.N,IRQ*%
X143675000Y-73818750D03*
%TD*%
D13*
%TO.P,R3,1*%
%TO.N,VSS*%
X146685000Y-66675000D03*
D14*
%TO.P,R3,2*%
%TO.N,Net-(U2-REXT)*%
X139065000Y-66675000D03*
%TD*%
D25*
%TO.P,U1,1,GPIO26/ADC0/A0*%
%TO.N,unconnected-(U1-GPIO26{slash}ADC0{slash}A0-Pad1)*%
X170380000Y-73818750D03*
D26*
X169545000Y-73818750D03*
D25*
%TO.P,U1,2,GPIO27/ADC1/A1*%
%TO.N,unconnected-(U1-GPIO27{slash}ADC1{slash}A1-Pad2)*%
X170380000Y-71278750D03*
D26*
X169545000Y-71278750D03*
D25*
%TO.P,U1,3,GPIO28/ADC2/A2*%
%TO.N,unconnected-(U1-GPIO28{slash}ADC2{slash}A2-Pad3)*%
X170380000Y-68738750D03*
D26*
X169545000Y-68738750D03*
D25*
%TO.P,U1,4,GPIO29/ADC3/A3*%
%TO.N,unconnected-(U1-GPIO29{slash}ADC3{slash}A3-Pad4)*%
X170380000Y-66198750D03*
D26*
X169545000Y-66198750D03*
D25*
%TO.P,U1,5,GPIO6/SDA*%
%TO.N,Net-(U1-GPIO6{slash}SDA)*%
X170380000Y-63658750D03*
D26*
X169545000Y-63658750D03*
D25*
%TO.P,U1,6,GPIO7/SCL*%
%TO.N,Net-(U1-GPIO7{slash}SCL)*%
X170380000Y-61118750D03*
D26*
X169545000Y-61118750D03*
D25*
%TO.P,U1,7,GPIO0/TX*%
%TO.N,IRQ*%
X170380000Y-58578750D03*
D26*
X169545000Y-58578750D03*
%TO.P,U1,8,GPIO1/RX*%
%TO.N,unconnected-(U1-GPIO1{slash}RX-Pad8)*%
X154305000Y-58578750D03*
D27*
X153470000Y-58578750D03*
D26*
%TO.P,U1,9,GPIO2/SCK*%
%TO.N,unconnected-(U1-GPIO2{slash}SCK-Pad9)*%
X154305000Y-61118750D03*
D27*
X153470000Y-61118750D03*
D26*
%TO.P,U1,10,GPIO4/MISO*%
%TO.N,unconnected-(U1-GPIO4{slash}MISO-Pad10)*%
X154305000Y-63658750D03*
D27*
X153470000Y-63658750D03*
D26*
%TO.P,U1,11,GPIO3/MOSI*%
%TO.N,unconnected-(U1-GPIO3{slash}MOSI-Pad11)*%
X154305000Y-66198750D03*
D27*
X153470000Y-66198750D03*
D26*
%TO.P,U1,12,3V3*%
%TO.N,3V3*%
X154305000Y-68738750D03*
D27*
X153470000Y-68738750D03*
D26*
%TO.P,U1,13,GND*%
%TO.N,VSS*%
X154305000Y-71278750D03*
D27*
X153470000Y-71278750D03*
D26*
%TO.P,U1,14,VBUS*%
%TO.N,unconnected-(U1-VBUS-Pad14)*%
X154305000Y-73818750D03*
D27*
X153470000Y-73818750D03*
%TD*%
D28*
%TO.P,C1,1*%
%TO.N,3V3*%
X145450000Y-70000000D03*
%TO.P,C1,2*%
%TO.N,VSS*%
X147000000Y-70000000D03*
%TD*%
D29*
%TO.N,3V3*%
X148000000Y-72290750D03*
X133808750Y-71191250D03*
%TO.N,VSS*%
X142000000Y-69000000D03*
X134038750Y-73961250D03*
%TD*%
D30*
%TO.N,VSS*%
X147000000Y-66990000D02*
X146685000Y-66675000D01*
X147000000Y-70000000D02*
X147000000Y-66990000D01*
%TO.N,3V3*%
X145450000Y-70000000D02*
X145450000Y-71362750D01*
X145450000Y-71362750D02*
X146378000Y-72290750D01*
%TO.N,ELE0*%
X140000000Y-76134890D02*
X140000000Y-79000000D01*
X140928640Y-75206250D02*
X140000000Y-76134890D01*
X141487500Y-75206250D02*
X140928640Y-75206250D01*
%TO.N,3V3*%
X152903640Y-68738750D02*
X154305000Y-68738750D01*
D31*
X146378000Y-72290750D02*
X148000000Y-72290750D01*
X144262500Y-74406250D02*
X146378000Y-72290750D01*
X142075000Y-73818750D02*
X136436250Y-73818750D01*
X155317000Y-69750750D02*
X154305000Y-68738750D01*
X154724185Y-72290750D02*
X155317000Y-71697935D01*
X133808750Y-71191250D02*
X118698750Y-56081250D01*
X155317000Y-71697935D02*
X155317000Y-69750750D01*
X136436250Y-73818750D02*
X133808750Y-71191250D01*
X148000000Y-72290750D02*
X154724185Y-72290750D01*
%TO.N,VSS*%
X134483750Y-74406250D02*
X134038750Y-73961250D01*
X141487500Y-74406250D02*
X134483750Y-74406250D01*
X142475000Y-73312524D02*
X142000000Y-72837524D01*
X142000000Y-72837524D02*
X142000000Y-69000000D01*
D30*
X151288750Y-71278750D02*
X154305000Y-71278750D01*
D31*
X142475000Y-73818750D02*
X142475000Y-73312524D01*
D30*
X146685000Y-66675000D02*
X151288750Y-71278750D01*
D31*
X134038750Y-73961250D02*
X116158750Y-56081250D01*
D30*
%TO.N,Net-(U1-GPIO6{slash}SDA)*%
X146953250Y-62180750D02*
X168067000Y-62180750D01*
X168067000Y-62180750D02*
X169545000Y-63658750D01*
X146685000Y-61912500D02*
X146953250Y-62180750D01*
D31*
%TO.N,SDA*%
X142875000Y-73818750D02*
X142875000Y-61875000D01*
D30*
X123778750Y-56081250D02*
X129610000Y-61912500D01*
X129610000Y-61912500D02*
X139065000Y-61912500D01*
D31*
X142875000Y-61875000D02*
X142000000Y-61000000D01*
X139977500Y-61000000D02*
X139065000Y-61912500D01*
X142000000Y-61000000D02*
X139977500Y-61000000D01*
D30*
%TO.N,SCL*%
X136683750Y-54768750D02*
X122551250Y-54768750D01*
X122551250Y-54768750D02*
X121238750Y-56081250D01*
X139065000Y-57150000D02*
X136683750Y-54768750D01*
D31*
X143275000Y-73818750D02*
X143275000Y-61360000D01*
X143275000Y-61360000D02*
X139065000Y-57150000D01*
D30*
%TO.N,Net-(U1-GPIO7{slash}SCL)*%
X146685000Y-57150000D02*
X165576250Y-57150000D01*
X165576250Y-57150000D02*
X169545000Y-61118750D01*
D31*
%TO.N,Net-(U2-REXT)*%
X115154750Y-57085250D02*
X115154750Y-55077250D01*
X116232000Y-54000000D02*
X119000000Y-54000000D01*
X120234750Y-56497121D02*
X130412629Y-66675000D01*
X115154750Y-55077250D02*
X116232000Y-54000000D01*
X119000000Y-54000000D02*
X120234750Y-55234750D01*
X132875750Y-74806250D02*
X115154750Y-57085250D01*
X120234750Y-55234750D02*
X120234750Y-56497121D01*
X130412629Y-66675000D02*
X139065000Y-66675000D01*
X141487500Y-74806250D02*
X132875750Y-74806250D01*
D30*
%TO.N,IRQ*%
X170622630Y-58578750D02*
X169545000Y-58578750D01*
D31*
X143675000Y-73818750D02*
X143675000Y-58675075D01*
X143675000Y-58675075D02*
X146350075Y-56000000D01*
X146350075Y-56000000D02*
X166966250Y-56000000D01*
X166966250Y-56000000D02*
X169545000Y-58578750D01*
%TD*%
%TA.AperFunction,Conductor*%
%TO.N,ELE0*%
G36*
X150943039Y-79019685D02*
G01*
X150988794Y-79072489D01*
X151000000Y-79124000D01*
X151000000Y-84876000D01*
X150980315Y-84943039D01*
X150927511Y-84988794D01*
X150876000Y-85000000D01*
X134124000Y-85000000D01*
X134056961Y-84980315D01*
X134011206Y-84927511D01*
X134000000Y-84876000D01*
X134000000Y-79124000D01*
X134019685Y-79056961D01*
X134072489Y-79011206D01*
X134124000Y-79000000D01*
X150876000Y-79000000D01*
X150943039Y-79019685D01*
G37*
%TD.AperFunction*%
%TD*%
M02*
